<svg width="128" height="50" viewBox="0 0 128 50" fill="none" xmlns="http://www.w3.org/2000/svg">
<g clip-path="url(#clip0_1_5)">
<path d="M31.7758 37.7112C31.7758 38.1137 31.2994 38.5487 30.8792 38.5487C30.5685 38.5487 30.3347 38.38 30.3347 38.0042C30.3347 37.4686 30.9295 37.4005 31.5657 37.4005H31.7758V37.7112ZM30.965 35.1338C30.3969 35.1338 29.7014 35.3675 29.7014 35.6694C29.7014 35.8706 29.8109 36.1133 30.021 36.1133C30.1897 36.1133 30.3377 35.8617 30.9502 35.8617C31.5628 35.8617 31.7788 36.3382 31.7788 36.7672V36.9182H31.4089C30.2459 36.9182 29.4499 37.1697 29.4499 38.1166C29.4499 38.8712 29.953 39.2234 30.5626 39.2234C31.1307 39.2234 31.5332 38.9127 31.8261 38.5694V38.8624C31.8261 39.0222 32.0007 39.1553 32.2286 39.1553C32.4713 39.1553 32.6547 39.0222 32.6547 38.8624V36.7613C32.6547 35.9209 32.196 35.1338 30.965 35.1338ZM27.9792 35.1841C27.7277 35.1841 27.5442 35.3024 27.5442 35.4682V39.4542C27.5442 39.9306 27.5028 40.2828 27.1092 40.2828C26.9257 40.2828 26.7659 40.4337 26.7659 40.6675C26.7659 40.8509 26.8665 41.0374 27.2276 41.0374C28.0473 41.0374 28.426 40.3834 28.426 39.4542V35.4682C28.4231 35.2995 28.2307 35.1841 27.9792 35.1841ZM27.9792 33.2665C27.6951 33.2665 27.4673 33.4766 27.4673 33.7282C27.4673 33.9708 27.6951 34.1898 27.9792 34.1898C28.2633 34.1898 28.4911 33.9708 28.4911 33.7282C28.4882 33.4737 28.2633 33.2665 27.9792 33.2665ZM25.8131 33.2665C25.529 33.2665 25.3011 33.4766 25.3011 33.7282C25.3011 33.9708 25.526 34.1898 25.8131 34.1898C26.1001 34.1898 26.325 33.9708 26.325 33.7282C26.325 33.4737 26.1001 33.2665 25.8131 33.2665ZM25.8131 35.1841C25.5615 35.1841 25.3781 35.3024 25.3781 35.4682V38.8594C25.3781 39.0014 25.5615 39.1524 25.8131 39.1524C26.0646 39.1524 26.2569 39.0014 26.2569 38.8594V35.4682C26.2569 35.2995 26.0646 35.1841 25.8131 35.1841ZM21.6169 36.782C21.6169 36.2375 22.0194 35.912 22.4218 35.912C22.8923 35.912 23.2682 36.347 23.2682 36.782V38.8594C23.2682 39.0517 23.5019 39.1524 23.7032 39.1524C23.9281 39.1524 24.147 39.0517 24.147 38.8594V36.782C24.147 35.8765 23.4783 35.1308 22.6911 35.1308C22.1289 35.1308 21.7353 35.4415 21.5696 35.767V35.4652C21.5696 35.2965 21.395 35.1811 21.176 35.1811C20.9156 35.1811 20.741 35.2995 20.741 35.4652V38.8564C20.741 38.9985 20.9186 39.1494 21.176 39.1494C21.4098 39.1494 21.6199 38.9985 21.6199 38.8564V36.782H21.6169ZM18.5985 37.7112C18.5985 38.1137 18.1221 38.5487 17.7019 38.5487C17.3912 38.5487 17.1574 38.38 17.1574 38.0042C17.1574 37.4686 17.7522 37.4005 18.3884 37.4005H18.5985V37.7112ZM17.7877 35.1338C17.2196 35.1338 16.5241 35.3675 16.5241 35.6694C16.5241 35.8706 16.6336 36.1133 16.8437 36.1133C17.0124 36.1133 17.1633 35.8617 17.7729 35.8617C18.3855 35.8617 18.6015 36.3382 18.6015 36.7672V36.9182H18.2316C17.0686 36.9182 16.2726 37.1697 16.2726 38.1166C16.2726 38.8712 16.7757 39.2234 17.3853 39.2234C17.9534 39.2234 18.3559 38.9127 18.6489 38.5694V38.8624C18.6489 39.0222 18.8234 39.1553 19.0513 39.1553C19.294 39.1553 19.4774 39.0222 19.4774 38.8624V36.7613C19.4804 35.9209 19.0187 35.1338 17.7877 35.1338ZM14.4557 37.5544C14.4557 38.0071 14.0532 38.4422 13.6005 38.4422C13.1063 38.4422 12.7541 37.948 12.7541 37.7467V36.785C12.7541 36.2405 13.1714 35.915 13.5827 35.915C14.0591 35.915 14.4527 36.35 14.4527 36.785L14.4557 37.5544ZM12.2955 35.1841C12.0617 35.1841 11.8753 35.3024 11.8753 35.4682V40.7444C11.8753 40.8953 12.0498 41.0374 12.3014 41.0374C12.5529 41.0374 12.7541 40.8953 12.7541 40.7444V38.5664C12.9228 38.9097 13.3578 39.2204 13.8579 39.2204C14.6451 39.2204 15.3316 38.4244 15.3316 37.5544V36.785C15.3316 35.8795 14.6628 35.1338 13.8254 35.1338C13.2897 35.1338 12.8873 35.4445 12.7038 35.77V35.4682C12.7068 35.2995 12.5292 35.1841 12.2955 35.1841ZM8.88942 39.2204C9.83637 39.2204 10.6146 38.451 10.6146 37.5692V35.4682C10.6146 35.3172 10.44 35.1841 10.1885 35.1841C9.94586 35.1841 9.74463 35.3172 9.74463 35.4682V37.5692C9.74463 38.0131 9.36881 38.4392 8.88942 38.4392C8.41891 38.4392 8.03422 38.0131 8.03422 37.5692V35.4741C8.03422 35.3232 7.83299 35.1811 7.59921 35.1811C7.35656 35.1811 7.15533 35.3232 7.15533 35.4741V37.5692C7.15533 38.4422 7.94248 39.2204 8.88942 39.2204ZM4.09257 38.4244L5.89176 35.8529C5.97462 35.7345 6.02492 35.6191 6.02492 35.4918C6.02492 35.2817 5.88288 35.1811 5.72308 35.1811H3.30246C3.13379 35.1811 3.02726 35.3498 3.02726 35.5421C3.02726 35.7434 3.15154 35.912 3.30246 35.912H4.89451L3.10124 38.4836C3.03317 38.5753 2.95032 38.7026 2.95032 38.8357C2.95032 38.9866 3.04205 39.1553 3.26103 39.1553H5.86512C6.0338 39.1553 6.14921 38.9866 6.14921 38.7943C6.14921 38.5842 6.02196 38.4244 5.86512 38.4244H4.09257ZM3.69012 33.0712C3.65757 33.0387 3.61614 33.0209 3.58063 33.0209C3.46226 33.0209 3.3794 33.1629 3.3794 33.2961C3.3794 33.3967 3.42083 33.4973 3.52144 33.5713L4.38553 34.1987C4.43583 34.2312 4.48614 34.2578 4.53645 34.2578C4.59563 34.2578 4.64594 34.2312 4.69624 34.1987L5.55145 33.5713C5.66094 33.4973 5.70237 33.3967 5.70237 33.2961C5.70237 33.1629 5.61951 33.0209 5.50114 33.0209C5.46859 33.0209 5.42716 33.0387 5.39165 33.0712L4.53645 33.6986L3.69012 33.0712Z" fill="white"/>
<path d="M14.7604 13.8394V12.5166C14.7604 12.0372 14.2811 11.6999 13.6922 11.6999C13.0175 11.6999 12.5381 12.0372 12.5381 12.5166V24.1847C12.5381 24.6079 13.0175 25.0281 13.6922 25.0281C14.3373 25.0281 14.8729 24.6079 14.8729 24.1847V17.7751C14.8729 15.2154 16.6425 13.6411 18.4446 13.6411H19.4005C19.8798 13.6411 20.3001 13.1617 20.3001 12.5995C20.3001 12.0372 19.8798 11.5312 19.4005 11.5312H18.4446C16.7017 11.5342 15.3789 12.6883 14.7604 13.8394ZM32.2996 13.6441C33.8739 13.6441 35.2233 14.9639 35.2233 16.8785V24.2173C35.2233 24.7795 35.8417 25.0311 36.3774 25.0311C36.9662 25.0311 37.5581 24.7795 37.5581 24.2173V16.8519C37.5581 14.884 39.0762 13.647 40.5676 13.647C42.0028 13.647 43.5209 14.7715 43.5209 16.9377V24.1907C43.5209 24.6138 44.0565 25.034 44.672 25.034C45.3201 25.034 45.8527 24.6138 45.8527 24.1907V16.9377C45.8527 13.508 43.5179 11.5401 41.044 11.5401C39.4135 11.5401 37.7534 12.4397 36.7709 14.3513C36.1229 12.6912 34.6906 11.5401 32.9181 11.5401C31.0626 11.5401 29.7961 12.5817 29.1776 13.6766V12.5226C29.1776 12.0432 28.7012 11.7058 28.1094 11.7058C27.4347 11.7058 26.9553 12.0432 26.9553 12.5226V24.1907C26.9553 24.6138 27.4317 25.034 28.1094 25.034C28.7574 25.034 29.2901 24.6138 29.2901 24.1907V16.9377C29.2901 14.8248 30.8082 13.6441 32.2996 13.6441ZM23.0639 25.0311C23.712 25.0311 24.2447 24.6109 24.2447 24.1877V12.5196C24.2447 12.0402 23.709 11.7029 23.0639 11.7029C22.4159 11.7029 21.9099 12.0402 21.9099 12.5196V24.1877C21.9099 24.6079 22.4188 25.0311 23.0639 25.0311ZM63.6523 13.8394V12.5166C63.6523 12.0372 63.1758 11.6999 62.584 11.6999C61.9093 11.6999 61.4299 12.0372 61.4299 12.5166V24.1847C61.4299 24.6079 61.9093 25.0281 62.584 25.0281C63.2291 25.0281 63.7647 24.6079 63.7647 24.1847V17.7751C63.7647 15.2154 65.5373 13.6411 67.3365 13.6411H68.2923C68.7717 13.6411 69.1919 13.1617 69.1919 12.5995C69.1919 12.0372 68.7717 11.5312 68.2923 11.5312H67.3365C65.5935 11.5342 64.2737 12.6883 63.6523 13.8394ZM23.0639 5.37609C22.2472 5.37609 21.6021 5.99457 21.6021 6.69885C21.6021 7.40314 22.2472 8.04825 23.0639 8.04825C23.8511 8.04825 24.4992 7.40314 24.4992 6.69885C24.4992 5.99457 23.8511 5.37609 23.0639 5.37609ZM83.4818 17.636V4.4765C83.4818 4.00007 82.9492 3.66272 82.3011 3.66272C81.6264 3.66272 81.147 4.00007 81.147 4.4765V24.1847C81.147 24.6079 81.6264 25.0281 82.3011 25.0281C82.9492 25.0281 83.4818 24.6079 83.4818 24.1847V20.3052L85.8166 18.2249L90.288 24.7766C90.4567 25.0281 90.6816 25.1406 90.9331 25.1406C91.5249 25.1406 92.2263 24.5221 92.2263 23.9598C92.2263 23.8178 92.17 23.6787 92.0842 23.5367L87.4176 16.7631L91.3267 13.3038C91.5249 13.1351 91.5812 12.9398 91.5812 12.7415C91.5812 12.1793 90.9331 11.6437 90.4004 11.6437C90.2318 11.6437 90.0335 11.7295 89.8944 11.8419L83.4818 17.636ZM98.5175 23.1461C96.745 23.1461 95.3127 21.5155 95.3127 19.7992V16.9318C95.3127 15.2716 96.7183 13.6411 98.5175 13.6411C100.317 13.6411 101.752 15.2716 101.752 16.9318V19.7992C101.749 21.5155 100.287 23.1461 98.5175 23.1461ZM98.5175 25.256C101.497 25.256 104.084 22.64 104.084 19.8022V16.9347C104.084 13.9814 101.497 11.5371 98.5175 11.5371C95.4814 11.5371 92.9779 14.0673 92.9779 16.9347V19.8022C92.9779 22.6667 95.5376 25.256 98.5175 25.256ZM74.551 25.256C77.5605 25.256 79.2472 23.7941 79.2472 21.4889C79.2472 16.3991 72.3582 18.2545 72.3582 15.3871C72.3582 14.5437 73.0329 13.4192 74.9179 13.4192C76.5484 13.4192 77.4184 14.2359 77.9274 14.2359C78.4897 14.2359 78.8566 13.4192 78.8566 13.0552C78.8566 12.2681 76.8592 11.5371 74.8913 11.5371C71.5178 11.5371 70.2809 13.6175 70.2809 15.4729C70.2809 20.1395 77.1403 18.2012 77.1403 21.6014C77.1403 22.501 76.4922 23.371 74.4681 23.371C71.9942 23.371 71.4024 22.0512 70.7573 22.0512C70.2779 22.0512 69.9406 22.6963 69.9406 23.1194C69.9406 24.0753 71.8522 25.256 74.551 25.256ZM53.5969 23.1461C51.8244 23.1461 50.3921 21.5155 50.3921 19.7992V16.9318C50.3921 15.2716 51.7977 13.6411 53.5969 13.6411C55.3961 13.6411 56.8313 15.2716 56.8313 16.9318V19.7992C56.8313 21.5155 55.3695 23.1461 53.5969 23.1461ZM53.5969 25.256C56.5768 25.256 59.1632 22.64 59.1632 19.8022V16.9347C59.1632 13.9814 56.5768 11.5371 53.5969 11.5371C50.5608 11.5371 48.0573 14.0673 48.0573 16.9347V19.8022C48.0573 22.6667 50.617 25.256 53.5969 25.256Z" fill="white"/>
<path d="M10.1914 19.885V17.0176C10.1914 14.0643 7.94246 11.62 5.13122 11.62C4.45652 11.62 3.85285 11.762 3.32611 11.9958V14.014C3.72856 13.8305 4.16356 13.7299 4.59561 13.7299C6.3948 13.7299 7.85664 15.3604 7.85664 17.0205V19.888C7.85664 21.5747 6.3652 23.2348 4.65183 23.2348C4.17244 23.2348 3.7256 23.1076 3.32611 22.9064V24.892C3.89724 25.1702 4.54826 25.3447 5.24367 25.3447C7.88623 25.3388 10.1914 22.7229 10.1914 19.885Z" fill="white"/>
<path d="M1.15113 31.4969C1.79919 31.4969 2.33185 31.0767 2.33185 30.6535V12.419C2.33185 11.9396 1.79919 11.6022 1.15113 11.6022C0.506022 11.6022 0 11.9396 0 12.419V30.6535C0 31.0767 0.506022 31.4969 1.15113 31.4969Z" fill="white"/>
<path d="M108.091 32.506V19.3465C108.091 18.87 107.555 18.5327 106.91 18.5327C106.235 18.5327 105.756 18.87 105.756 19.3465V39.0547C105.756 39.4749 106.235 39.8981 106.91 39.8981C107.555 39.8981 108.091 39.4749 108.091 39.0547V35.1752L110.425 33.0949L114.897 39.6465C115.065 39.901 115.29 40.0135 115.545 40.0135C116.137 40.0135 116.838 39.395 116.838 38.8328C116.838 38.6937 116.782 38.5516 116.696 38.4126L112.029 31.636L115.938 28.1767C116.134 28.008 116.19 27.8098 116.19 27.6145C116.19 27.0522 115.545 26.5166 115.009 26.5166C114.84 26.5166 114.645 26.6024 114.503 26.7149L108.091 32.506Z" fill="white"/>
<path d="M37.2799 26.4041C36.7295 26.4041 36.2117 26.4692 35.7352 26.5906V28.4697C36.1554 28.1767 36.6822 28.0051 37.3095 28.0051C39.0525 28.0051 40.0941 29.3545 40.0941 31.0412V31.9674C40.0941 33.74 39.0259 35.0332 37.3391 35.0332C36.7029 35.0332 36.1673 34.8556 35.7382 34.5538V36.4151C36.2176 36.5631 36.7354 36.637 37.2829 36.637C40.2628 36.637 42.3727 34.6396 42.3727 31.9704V31.0442C42.3727 30.0321 42.0916 29.0763 41.4997 28.372C41.9791 27.5849 42.5976 27.3037 43.0178 27.1913C43.2723 27.0788 43.4972 26.8539 43.4972 26.5432C43.4972 26.1496 43.1332 25.6703 42.4852 25.6703C41.8667 25.6703 41.1358 26.2621 40.5735 27.499C39.7272 26.8273 38.6027 26.4041 37.2799 26.4041ZM35.7352 46.1952C36.2738 46.287 36.8479 46.3373 37.4486 46.3373C40.6534 46.3373 43.1569 45.0145 43.1569 42.2329C43.1569 38.2883 38.1263 38.7706 35.7352 38.1906V40.1082C35.8447 40.0638 35.9572 40.0224 36.0726 39.9839C37.8451 40.2088 40.8813 40.1792 40.8813 42.2891C40.8813 43.7509 39.5319 44.7068 37.422 44.7068C36.7887 44.7068 36.2235 44.6239 35.7352 44.47V46.1952Z" fill="white"/>
<path d="M50.549 38.016C48.7764 38.016 47.3441 36.3855 47.3441 34.6692V31.8017C47.3441 30.1416 48.7498 28.5111 50.549 28.5111C52.3481 28.5111 53.7834 30.1416 53.7834 31.8017V34.6692C53.7804 36.3855 52.3186 38.016 50.549 38.016ZM50.549 40.1259C53.5289 40.1259 56.1152 37.51 56.1152 34.6721V31.8047C56.1152 28.8514 53.5289 26.4071 50.549 26.4071C47.5128 26.4071 45.0093 28.9372 45.0093 31.8047V34.6721C45.0093 37.5366 47.5661 40.1259 50.549 40.1259Z" fill="white"/>
<path d="M61.0068 28.7094V27.3866C61.0068 26.9102 60.5274 26.5728 59.9385 26.5728C59.2638 26.5728 58.7844 26.9102 58.7844 27.3866V39.0547C58.7844 39.4749 59.2638 39.8981 59.9385 39.8981C60.5836 39.8981 61.1192 39.4779 61.1192 39.0547V32.6451C61.1192 30.0854 62.8918 28.5111 64.691 28.5111H65.6468C66.1232 28.5111 66.5464 28.0317 66.5464 27.4695C66.5464 26.9072 66.1232 26.4012 65.6468 26.4012H64.691C62.9451 26.4041 61.6253 27.5582 61.0068 28.7094Z" fill="white"/>
<path d="M72.1955 38.2409C70.9586 38.2409 70.0294 37.5929 70.0294 36.134C70.0294 34.1365 72.2221 33.9116 74.6132 33.9116H75.5986V35.3735C75.5956 36.6666 73.7964 38.2409 72.1955 38.2409ZM71.4646 40.1259C73.3496 40.1259 74.7256 39.0577 75.711 37.9332V39.0577C75.711 39.5371 76.1608 39.901 76.7793 39.901C77.454 39.901 77.9304 39.5371 77.9304 39.0577V31.8609C77.9304 29.0497 76.4982 26.4071 72.5595 26.4071C70.7041 26.4071 68.5675 27.1647 68.5675 28.0376C68.5675 28.5436 68.8753 29.2183 69.4405 29.2183C69.9465 29.2183 70.5384 28.4046 72.5062 28.4046C74.7552 28.4046 75.5986 30.2304 75.5986 31.8905V32.4794H74.2492C70.3401 32.4794 67.6709 33.2665 67.6709 36.3885C67.6679 38.9452 69.3547 40.1259 71.4646 40.1259Z" fill="white"/>
<path d="M83.1889 28.5407V27.3866C83.1889 26.9072 82.6829 26.5699 82.1206 26.5699C81.4459 26.5699 80.9666 26.9072 80.9666 27.3866V39.0547C80.9666 39.4749 81.4459 39.8981 82.1206 39.8981C82.7391 39.8981 83.3014 39.4779 83.3014 39.0547V31.8017C83.3014 29.748 84.849 28.5111 86.3671 28.5111C88.1101 28.5111 89.5719 30.1416 89.5719 31.8017V39.0547C89.5719 39.617 90.1637 39.8981 90.726 39.8981C91.3149 39.8981 91.9067 39.617 91.9067 39.0547V31.8017C91.9067 28.8484 89.6281 26.4041 86.9589 26.4041C85.0739 26.4041 83.7512 27.4458 83.1889 28.5407Z" fill="white"/>
<path d="M98.7602 40.1259C101.77 40.1259 103.456 38.6641 103.456 36.3589C103.456 31.2691 96.5674 33.1245 96.5674 30.257C96.5674 29.4136 97.2421 28.2892 99.1271 28.2892C100.758 28.2892 101.631 29.1029 102.137 29.1029C102.699 29.1029 103.066 28.2892 103.066 27.9222C103.066 27.1351 101.068 26.4041 99.1005 26.4041C95.727 26.4041 94.4901 28.4845 94.4901 30.3399C94.4901 35.0065 101.349 33.0683 101.349 36.4684C101.349 37.368 100.701 38.2409 98.6773 38.2409C96.2035 38.2409 95.6116 36.9211 94.9665 36.9211C94.4871 36.9211 94.1498 37.5662 94.1498 37.9894C94.1498 38.9452 96.0614 40.1259 98.7602 40.1259Z" fill="white"/>
<path d="M122.262 38.2409C121.025 38.2409 120.096 37.5958 120.096 36.131C120.096 34.1336 122.289 33.9087 124.68 33.9087H125.665V35.3705C125.665 36.6666 123.866 38.2409 122.262 38.2409ZM125.778 37.9302V39.0547C125.778 39.5341 126.227 39.8981 126.846 39.8981C127.521 39.8981 128 39.5311 128 39.0547V31.8579C128 29.0467 126.565 26.4041 122.629 26.4041C120.774 26.4041 118.637 27.1647 118.637 28.0347C118.637 28.5407 118.948 29.2154 119.51 29.2154C120.016 29.2154 120.605 28.3986 122.576 28.3986C124.825 28.3986 125.668 30.2274 125.668 31.8846V32.4764H124.319C120.41 32.4764 117.74 33.2636 117.74 36.3855C117.74 38.9452 119.427 40.1259 121.537 40.1259C123.416 40.1259 124.795 39.0547 125.778 37.9302Z" fill="white"/>
</g>
<defs>
<clipPath id="clip0_1_5">
<rect width="128" height="42.6746" fill="white" transform="translate(0 3.66272)"/>
</clipPath>
</defs>
</svg>
